PathFileType	4	(X/Y/Z)	Patient5_TMGait_0pt45_1_right_07.trc.trc
DataRate	CameraRate	NumFrames	NumMarkers	Units	OrigDataRate	OrigDataStartFrame	OrigNumFrames
59.071729957806	59.071729957806	4	32	mm	59.071729957806	53	       141
Frame#	Time	R.ASIS			L.ASIS			Chest			R.Shoulder			Neck			L.Shoulder			L.Elbow			L.Wrist			R.Elbow			R.Wrist			L.Thigh.Superior			L.Thigh.Lateral			L.Thigh.Inferior			L.Patella			L.Shank.Superior			L.Shank.Lateral			L.Shank.Inferior			L.Heel			L.Midfoot.Lateral			L.Midfoot.Superior			L.Toe			R.Thigh.Superior			R.Thigh.Lateral			R.Thigh.Inferior			R.Patella			R.Shank.Superior			R.Shank.Lateral			R.Shank.Inferior			R.Heel			R.Midfoot.Lateral			R.Midfoot.Superior			R.Toe			
		X1	Y1	Z1	X2	Y2	Z2	X3	Y3	Z3	X4	Y4	Z4	X5	Y5	Z5	X6	Y6	Z6	X7	Y7	Z7	X8	Y8	Z8	X9	Y9	Z9	X10	Y10	Z10	X11	Y11	Z11	X12	Y12	Z12	X13	Y13	Z13	X14	Y14	Z14	X15	Y15	Z15	X16	Y16	Z16	X17	Y17	Z17	X18	Y18	Z18	X19	Y19	Z19	X20	Y20	Z20	X21	Y21	Z21	X22	Y22	Z22	X23	Y23	Z23	X24	Y24	Z24	X25	Y25	Z25	X26	Y26	Z26	X27	Y27	Z27	X28	Y28	Z28	X29	Y29	Z29	X30	Y30	Z30	X31	Y31	Z31	X32	Y32	Z32	

53	12.050285714286	1037.601740742056	961.279255105728	606.767479233960	1019.874106089371	955.126808419564	363.088566468785	1137.173555141871	1413.592398554476	492.003437780226	1060.896904011478	1479.775785280622	667.038502153604	1017.337908539851	1545.343592728788	489.276704543727	1060.901007981703	1492.188190215552	303.161072319447	935.398270359804	1187.992250218197	181.644566841919	1018.887793142749	911.207226523068	169.554268308008	1007.624127586436	1167.155240671452	828.887334044514	1222.374315842964	987.576043256590	753.525326612999	1096.095617243325	785.037903018068	338.452165836745	1064.063496868184	699.021457527936	285.408979279942	1158.189421138356	674.495424628911	345.790156237715	1212.694732502873	544.718565138773	331.831861789697	1161.160089860555	434.577156647820	355.362748524083	1078.964266511501	374.847708368795	285.115401389007	1116.350112763696	316.284209211407	366.776852119318	963.713452938781	94.460410578043	376.322869798288	1043.662210319988	68.376197728068	306.138850230890	1148.385973894586	124.078427672232	337.247779371686	1250.243588129003	78.923900677268	328.091868585713	1018.723491195424	726.905181005891	613.001328554754	920.672379641815	660.202583373201	663.682739119832	989.795243249887	599.602775407897	584.661101573135	977.820715223555	506.092583620148	608.156354534364	930.677060533397	418.550197523258	567.616346655151	861.000763309729	349.796763190795	647.088177231287	913.580365155915	280.834469796251	561.494507080043	790.643260647624	53.519255123233	517.021709769343	867.238652082483	24.789924466635	592.164225498798	973.430786045996	87.358455191155	570.331479903823	1077.576526235147	44.537911384504	572.993303967840	
54	12.067214285714	1037.614855343702	960.515330428045	606.045389658010	1021.627929081177	953.628744501598	362.488064187659	1139.171097857167	1412.382791126774	490.361345596905	1062.406935440806	1479.426220078892	664.765496694137	1019.531370189106	1544.363920014885	486.688061118964	1063.893019563790	1490.351567838829	300.923231217296	938.724442181526	1185.704600666777	180.109326247565	1022.610664085881	909.061358890137	168.420404851032	1006.849835451589	1167.436209411663	827.285590824309	1221.253087841196	986.974720569684	753.385982955028	1094.897024589541	781.305228580447	337.385887780817	1061.774755889797	695.033072521056	285.504846261731	1155.842103874855	670.428765717010	346.067365120364	1210.910549449155	544.601986533099	333.410717204057	1166.925594108264	433.695952282889	357.476746311958	1089.449778529805	367.660613419240	287.245564955722	1132.482964338018	311.851901424966	368.501103298420	998.666230954656	78.917743362090	378.157100661642	1080.369021526284	57.591563166001	308.456158180113	1180.816429337988	121.047520392110	339.027747243158	1285.707562579929	83.155723335100	330.603663690345	1016.733107181558	725.977140754628	612.420433380598	917.707550726151	660.155922054871	662.717809929094	986.490730172480	598.872976820386	584.224395105916	973.731470370169	505.340617516050	607.746845783402	925.801746326058	418.112135586040	567.068766952344	855.179198628728	350.185080168610	646.338627216962	907.624306735094	280.633795176568	561.220834162293	783.014929313886	53.538251752362	516.989197367456	859.532585931844	24.813220760673	592.134158075435	965.710458234574	87.273348090104	570.308730274195	1069.821911338094	44.540680554678	573.021922795083	
55	12.084142857143	1037.965053009997	959.840958294805	605.237349103111	1024.215541784939	952.003473801516	361.769161440245	1141.031831760897	1411.223143002879	488.524488302010	1063.534326673823	1479.002009778855	662.102476356248	1021.554760792580	1543.319782340623	483.719857286551	1067.041848908932	1488.494723502710	298.384904404930	942.450063585881	1183.347569311430	178.120295801862	1026.764754507144	906.855363538866	167.046560811654	1005.945774563284	1167.462923684946	825.104220613648	1219.778688145310	985.622500683580	753.097499277116	1094.354997390781	776.705310928126	336.192993093189	1059.474601613946	690.124130384823	286.013367137857	1153.552391767908	665.242820788251	346.670793035073	1208.330076955616	543.280676369311	335.981057083063	1171.183226493411	432.058929643277	360.341699065778	1098.587578061280	360.676696655165	289.921508702172	1146.429913902846	307.614484270699	370.821606169555	1030.227404209052	66.355154272494	379.755558608985	1113.573782144647	48.861781192520	310.924898063198	1209.825085007167	118.609057299608	341.688625272549	1317.001279673002	86.963873060478	334.499854307800	1015.320257425197	725.088184784689	611.703532388112	915.242389773923	660.135018734992	661.534957304015	983.745486486250	598.164292098504	583.703816585326	970.154348599868	504.565729500795	607.245647130601	921.406080234605	417.601292576169	566.405432748163	849.665064184768	350.619607059564	645.428244213681	901.971500373032	280.375902768097	560.879205502550	775.378315406326	53.531871125073	516.943313102289	851.840064841778	24.819732256014	592.090041603572	958.009477894328	87.218261312592	570.301566526274	1062.083856613213	44.523641399249	573.033500977365	
56	12.101071428571	1038.687431990262	959.223726209531	604.330257242788	1027.699029080449	950.362587306273	360.937950381087	1142.702451332982	1410.220252120832	486.503696060780	1064.143644613260	1478.581016107910	659.068320501170	1023.348906877974	1542.279517567817	480.367149565719	1070.274318940407	1486.694157673908	295.544007643143	946.663772233099	1180.976561511874	175.603836681175	1031.400649697650	904.623125631108	165.503922737458	1004.911726930318	1167.313072482541	822.390045787994	1217.992212692839	983.708519801216	752.570994793204	1094.834755584003	771.573481079060	335.088429182136	1057.684738051407	684.662549199352	287.006829778064	1151.724405763130	659.315078277873	347.834587748939	1205.402348916695	540.926965282030	339.721661363344	1174.028644105120	429.677712157486	364.019279194552	1106.201326551863	354.102586334040	293.127056962969	1157.663886828688	303.512836988282	373.799290540834	1056.643649391325	56.927473139458	381.166637445677	1141.521015472683	42.118244029372	313.531560512360	1234.117168408901	116.318078376499	345.304882432740	1342.879578254127	89.413510968592	339.741662229043	1014.557395185808	724.237757054391	610.800515873015	913.383440727348	660.137584310293	660.128753752951	981.665134938727	597.467980726776	583.063537248809	967.174810126494	503.762742268485	606.626497517573	917.576621774151	417.022480184697	565.615895701554	844.533666237121	351.113063133493	644.355432262301	896.662341414197	280.061904748370	560.464192007371	767.735930312620	53.505561423929	516.885415945485	844.167805740073	24.807587597572	592.031524525477	950.333196757654	87.199558344157	570.317632586797	1054.371929296928	44.486016196684	573.032225519867	
